<svg viewBox="0 0 120 120" xmlns="http://www.w3.org/2000/svg">
  <g stroke-width=".184">
    <path
      d="M79.698 91.89a53.244 53.244 0 01-9.884.867h-2.29l-1.09-2.662-.72-1.747-21.403-52.961-.322-.792-1.08-2.7-5.155 12.732-18.37 45.472-.183.471-11.294 27.491H5.169l32.585-80.122 3.767-9.313-3.767-9.34h12.585l.013.024 27.47 67.931.621 1.548z" />
    <path
      d="M114.828 47.35a50.087 50.087 0 01-2.848 16.672 43.942 43.942 0 01-8.501 14.529q-5.647 6.412-14.083 10.319a40.368 40.368 0 01-9.695 3.02 53.244 53.244 0 01-9.884.866H17.825v-2.66h51.596a30.952 30.952 0 008.41-1.104c.211-.063.421-.124.62-.2a24.441 24.441 0 005.116-2.208c4.061-2.342 7.43-7.18 10.125-11.024a42.342 42.342 0 006.033-13.104 57.438 57.438 0 000-30.1 42.342 42.342 0 00-6.033-13.104 31.14 31.14 0 00-10.125-9.277Q77.473 6.477 69.42 6.477H50.36v43.806l-6.046-14.9-.322-.792-1.08-2.697-5.155 12.732v-6.689l3.766-9.313-3.766-9.34V1.944h32.06q11.278 0 19.78 3.89 8.504 3.89 14.084 10.309a43.421 43.421 0 018.36 14.529 50.888 50.888 0 012.787 16.679z" />
  </g>
</svg>
